PathFileType	4	(X/Y/Z)	21_1_5_p0_0-569_filt_butterworth.trc
DataRate	CameraRate	NumFrames	NumMarkers	Units	OrigDataRate	OrigDataStartFrame	OrigNumFrames
60.0	60.0	7	27	m	60.0	213	569
Frame#	Time	RHip			RKnee			RAnkle			RBigToe			RSmallToe			RHeel			LHip			LKnee			LAnkle			LBigToe			LSmallToe			LHeel			Neck			Head			Nose			RShoulder			RElbow			RWrist			RThumb			RIndex			RPinky			LShoulder			LElbow			LWrist			LThumb			LIndex			LPinky			
		X1	Y1	Z1	X2	Y2	Z2	X3	Y3	Z3	X4	Y4	Z4	X5	Y5	Z5	X6	Y6	Z6	X7	Y7	Z7	X8	Y8	Z8	X9	Y9	Z9	X10	Y10	Z10	X11	Y11	Z11	X12	Y12	Z12	X13	Y13	Z13	X14	Y14	Z14	X15	Y15	Z15	X16	Y16	Z16	X17	Y17	Z17	X18	Y18	Z18	X19	Y19	Z19	X20	Y20	Z20	X21	Y21	Z21	X22	Y22	Z22	X23	Y23	Z23	X24	Y24	Z24	X25	Y25	Z25	X26	Y26	Z26	X27	Y27	Z27	
213	3.55	0.2734376364909979	0.9478167366011736	0.49504679590494527	0.2791811290379979	0.4918264003510868	0.5334029178277019	0.25931936110729564	0.047195117748938975	0.6470142394502658	0.27341484362770707	0.045183843060876326	0.42382401886659643	0.33328692396941695	0.03779763821520829	0.47201227852928634	0.24257066333963614	-0.024100835422841003	0.7041970797471109	0.08157910129836948	0.9390369047731632	0.49789231286362656	0.08532380435779982	0.46418368766818185	0.5706608253660136	0.09834408164811652	0.0611736393057623	0.611032193580685	0.09958033641443836	0.050460397048652225	0.412225199328599	0.04217351448655305	0.03768627787850285	0.46600362936675405	0.1241348532948341	0.008339545446012266	0.6579865543519962	0.1896736526237725	1.5159111577542053	0.5064618350022649	0.22250883319415182	1.757070089774379	0.4494346398939023	0.20888312209298904	1.6310003811448641	0.39688566820467364	0.3512461782579748	1.4111807132010303	0.5048223174878685	0.35722991749353283	1.139117335353842	0.4776353932704583	0.23659396145626505	0.9778932158805534	0.3332068333689213	0.15067294279363055	0.9087940939932496	0.32232715341725166	0.14416741758840113	0.8806118131204522	0.34966477195129103	0.17954738488049948	0.8710032733820889	0.33589651921636543	0.046682417085482	1.4313754108891914	0.48043923308937736	0.02545239838644972	1.1556993832813602	0.4645515316840042	0.12132147930543014	0.9854600061521234	0.35655003895902515	0.19054768417034548	0.9115082830483685	0.3391852032857523	0.19258885127130831	0.8782193624556061	0.3409006824931138	0.17546110209368654	0.8846140623178148	0.32287392609568044	
214	3.566666666666667	0.2733941325375296	0.9478611769404534	0.4953254506563175	0.2789766809212571	0.4922921527039811	0.5325059738073142	0.2595820400972406	0.046618524395892286	0.6480398150741447	0.273404690036659	0.04518259683552723	0.42382601957117183	0.3331760749430978	0.037567784511858174	0.47239908142133386	0.24260593770151795	-0.02416840094488279	0.7041679343748631	0.0814691508947454	0.9391401989770245	0.4970681121144575	0.08527620652585198	0.464132232854623	0.5701219301661044	0.09834500482241221	0.06117920337179493	0.611046110745548	0.09820079873032375	0.04931656353769122	0.4151525588215892	0.042164947916099045	0.037708450023449254	0.4660567128417633	0.1241541561896244	0.00831193919493754	0.6580416472122982	0.18999093159006616	1.515169576048049	0.5046116187393973	0.22234057577712898	1.7569971267487374	0.44923597509293023	0.20893495016783176	1.6293224773659596	0.39694033345405455	0.3512772359841396	1.4107982893656974	0.5046896991490437	0.3581033589612034	1.1383100071785972	0.4782337625398652	0.23598554897726892	0.9780399742738045	0.33283111888771266	0.15047558213811227	0.9091699402679123	0.32225351826255233	0.14383446332835093	0.8811309237985634	0.3495738724738367	0.17861660744819097	0.8715507866183154	0.3329098757843472	0.04720181762819236	1.4312808038703086	0.4808215827916231	0.02543378323309035	1.1556869861027939	0.46448977507521794	0.12126271007730438	0.9862368023015138	0.3562752845088844	0.19008600688743194	0.9116539700392404	0.3389290279747044	0.19250700087332984	0.8782385847766357	0.3408912304162091	0.17550310567554844	0.8845739832376623	0.32307310910046777	
215	3.583333333333333	0.2733800588457257	0.9480189284492632	0.49548391208613896	0.2787453779274834	0.49285658837041213	0.531462318825337	0.2598475126236146	0.0459873198703962	0.6491608574561213	0.2734097905059575	0.045194265673444645	0.4238247659335682	0.33312664276891657	0.03742009876436033	0.47268215028123006	0.24259946137884528	-0.024086279668075906	0.7039514478904131	0.08140033568530124	0.9393340612750276	0.496428398155499	0.08522600573552848	0.464208750060719	0.5695819907512364	0.09834488726014316	0.061185882386467313	0.6110638723169065	0.0969502145293897	0.0485493159549764	0.4176473655275924	0.04216438005119906	0.037737304924507616	0.46610819973559603	0.12420052031851235	0.008338028275148457	0.6580052685400495	0.190652578087664	1.5147443656916402	0.502180417995608	0.22225965091134336	1.7570720946704623	0.44887983801645126	0.20896630134396843	1.627995548337829	0.3969223930607161	0.35128962235288536	1.4106795407105466	0.5046061825443793	0.3590155404644908	1.1376650068581533	0.47879124960258806	0.2355916861489336	0.9781888147661985	0.3326482009100395	0.1499380945559876	0.9095723870936393	0.3220252494292767	0.14317343533104615	0.8822451000860245	0.34927181346655045	0.1773996725869595	0.8723294008052155	0.3295780479355813	0.04786657594958972	1.431293960887111	0.4813293064947313	0.025416186851436668	1.155687092467924	0.46445586347581486	0.12123740113454261	0.9865406334285034	0.3561430064172559	0.18940992513767443	0.911818321995219	0.3386480412364407	0.19219156722921138	0.8788214160895215	0.33989574126593763	0.17550142477956596	0.8846901411012796	0.32326658026416827	
216	3.6	0.27344666632074166	0.9482756186412744	0.4953668972943938	0.2785012983050629	0.4934675502499136	0.5303200567719936	0.26011242987804706	0.04531530366888323	0.6503507776476934	0.2734379093300365	0.04521805680766692	0.4238194625552048	0.33315393727022335	0.037378436905695284	0.47280985391769953	0.24266166420057445	-0.023939754515667894	0.7037511315850481	0.08135586390599511	0.9396613055573428	0.4958469444850226	0.08517927223996037	0.4644530841347554	0.5690915941358891	0.0983428013174062	0.06119158854013232	0.6110856498615158	0.09600161809373114	0.04811903007686182	0.41941568197713447	0.04217124688978448	0.03776969854790735	0.4661503277263969	0.12430257135413497	0.00847000036324043	0.6577923855776473	0.19156707419490232	1.5146979809053713	0.4995046875542944	0.2223440654585117	1.757141481119769	0.4485632925151367	0.20897583025063712	1.6271140157471349	0.3968490545543656	0.3512905689853756	1.4107221269986658	0.5045555105177373	0.3598868551925105	1.1372725896899836	0.4792544956175953	0.2353970136394805	0.978268188329018	0.33267860943035943	0.1491252760904869	0.9099564225398779	0.3216288893882143	0.14227540803453004	0.883843477074985	0.34881786233468176	0.17615448162140707	0.8732421538485604	0.32667433677571567	0.048580632622722955	1.4313157242062613	0.4818752313703348	0.0253754851397964	1.1557170712476614	0.4644917566716288	0.12125093521516264	0.986276576941507	0.3561885114643562	0.18872830450691236	0.911972933263865	0.33838710856224485	0.19177999128042178	0.8798971100793445	0.3381121836292673	0.17533000619467232	0.8849891072251082	0.3233851283439865	
217	3.616666666666666	0.27364921320945046	0.9486398870637996	0.4948334144475436	0.2782540491251273	0.4940625149842323	0.5291524470637249	0.2603729676030729	0.04461528498337321	0.6515829534968705	0.27348348977822307	0.045254189239766096	0.42381152265729133	0.33322192260468986	0.037381136579502566	0.47286577681402076	0.24288082360527605	-0.023853025459173515	0.7037467115254142	0.08131207154417842	0.9400789119487319	0.49522014896181354	0.08515468995886291	0.46473693529239535	0.5686958629737296	0.09833867520228864	0.06119501208311916	0.6111059982879052	0.09544916261750945	0.04799804476286215	0.42030717601138684	0.04218444677228839	0.037805276817357535	0.46618351886896325	0.12445348077050074	0.00870117945885713	0.6574219261120963	0.19261450645993644	1.5148982981236043	0.4969855891082354	0.22266366044997116	1.7571346402422705	0.4484516986950421	0.20897474926973286	1.6267635615964893	0.3967769003321563	0.35129009980748016	1.4107993105669785	0.5045206715577186	0.36061542553607884	1.137149517756393	0.4795914325121564	0.23531832641938216	0.9782752164877152	0.33285419879112466	0.14814901393520466	0.9102932719984921	0.32110238464191904	0.14126016665201904	0.8855887635108871	0.34837207054505315	0.17518754910037265	0.873945580264325	0.3246768463941156	0.04925641974614747	1.4312983944414652	0.4824154859888005	0.02527272434223988	1.1557622276882231	0.4646623439976456	0.12129779956140975	0.9855222948566945	0.35639437242574873	0.18818307311274513	0.9120927540466606	0.33817052099278694	0.191427289030011	0.8812135924230905	0.33597088995745583	0.17490861213768702	0.8853422928175616	0.32338146221867137	
218	3.633333333333333	0.27400456868000517	0.9490834831171207	0.4938694244440251	0.27800288507550147	0.4945718337816545	0.5280261249474328	0.2606229736927997	0.04390132489075352	0.6528297799634495	0.27353081119109984	0.04529608798684071	0.4238074730923868	0.33329585221527036	0.03738531993255422	0.47291332917501483	0.24327003905238603	-0.02390754509512636	0.7039622672015743	0.08126104361211015	0.9404558110290593	0.4945665853068601	0.08516860583645006	0.4648828837335641	0.5684397634681442	0.09833362286062244	0.06119672474835043	0.6111198285811865	0.09528939311031007	0.04817979516548719	0.4203662692848197	0.042201915661758405	0.03784124054600348	0.46620812530626254	0.12459530347716102	0.00893423672730467	0.6570597525446839	0.19368072902804234	1.5151074359823833	0.4950393409992247	0.22321495042919332	1.7570609750036656	0.4486015619719642	0.20897480029088372	1.626929122724403	0.3967710473402928	0.3512944275110028	1.4108478430592388	0.504497177402813	0.361048067789539	1.1372092112912557	0.47976681369159746	0.23530803453011734	0.9782451250755141	0.33307951670984715	0.14714997832378024	0.9104263286317377	0.32054231011992446	0.1402548807006137	0.8869169470467442	0.3480914938714594	0.17478097234089762	0.874015960439456	0.323779647662059	0.04981659341313441	1.431249300477347	0.4829514335941689	0.02510418136816414	1.155748694214062	0.46495196539848993	0.1213633768502667	0.9845065008554857	0.35669343499300815	0.1878439967887354	0.912173781456438	0.3379688285640378	0.1912917528992406	0.8822309890854696	0.3342660887668253	0.17425973825215568	0.8855126989233624	0.3232237501097524	
219	3.65	0.27449106906412163	0.9495421860102892	0.4925857718596586	0.27773594900269766	0.49494275716186037	0.5269833741830371	0.26085458652802007	0.04319039976840219	0.6540615437237706	0.27356329676262525	0.04531913964326779	0.4238236035317664	0.33335512604206324	0.03737470062761004	0.47296971491798695	0.24377154733480627	-0.02410472905431345	0.7042987499286569	0.08121396281759015	0.9406579730367087	0.49399160436117684	0.08522736206320797	0.46476431769035537	0.568406571031098	0.09832882808583851	0.06119826664927629	0.6111271432703218	0.09538339536283236	0.04854549907318554	0.41993918397666535	0.04221951114537538	0.03786694418277893	0.46622147011890447	0.12466122396100253	0.009052941868504735	0.656896731667979	0.19464128463302363	1.515195528338044	0.4940185108976347	0.2239241912108204	1.7570006792210835	0.4489506946068682	0.208978626127663	1.6274727726910758	0.3968532038508703	0.3513034498743386	1.4108715227326325	0.5044886685736983	0.3610466969483612	1.137319522268495	0.47975565881234516	0.23542725714731663	0.9782429255888497	0.3333316329763749	0.14629174071100753	0.9100750675542373	0.3200823018130948	0.1394213581998897	0.8872102778329275	0.34793934404614135	0.17512667134449245	0.8731529145298005	0.3241157528498011	0.050188837888116886	1.4311951166695236	0.48344196403083073	0.024976431557804015	1.1556024068060737	0.46511328638946625	0.12142956535439445	0.9835095851276292	0.3569983211225833	0.18770140442020197	0.9122284527784659	0.3377402946624148	0.19148157224388201	0.8823491382413496	0.3339381144182378	0.17347194116083228	0.8852429386513301	0.3228929724647997	
